HIERARCHY
ROOT Hips
{
 OFFSET 0.000000 0.000000 0.000000
 CHANNELS 6 Xposition Yposition Zposition Yrotation Xrotation Zrotation
 JOINT Chest
 {
  OFFSET 0.000000 9.581000 -0.001100
  CHANNELS 3 Yrotation Xrotation Zrotation
  JOINT Chest2
  {
   OFFSET 0.000000 9.561100 0.002200
   CHANNELS 3 Yrotation Xrotation Zrotation
   JOINT Chest3
   {
    OFFSET 0.000000 9.521100 0.000000
    CHANNELS 3 Yrotation Xrotation Zrotation
    JOINT Chest4
    {
     OFFSET 0.000000 9.511400 0.000000
     CHANNELS 3 Yrotation Xrotation Zrotation
     JOINT Neck
     {
      OFFSET 0.000000 14.375100 0.000000
      CHANNELS 3 Yrotation Xrotation Zrotation
      JOINT Head
      {
       OFFSET 0.000000 8.901200 0.004600
       CHANNELS 3 Yrotation Xrotation Zrotation
       End Site
       {
        OFFSET 0.000000 16.962200 0.002400
       }
      }
     }
     JOINT RightCollar
     {
      OFFSET -2.920100 9.518800 0.000000
      CHANNELS 3 Yrotation Xrotation Zrotation
      JOINT RightShoulder
      {
       OFFSET -13.664500 0.000000 0.000000
       CHANNELS 3 Yrotation Xrotation Zrotation
       JOINT RightElbow
       {
        OFFSET 0.000000 -29.999200 0.000000
        CHANNELS 3 Yrotation Xrotation Zrotation
        JOINT RightWrist
        {
         OFFSET 0.000000 -24.253600 0.000000
         CHANNELS 3 Yrotation Xrotation Zrotation
         End Site
         {
          OFFSET 0.000000 -17.918900 0.000000
         }
        }
       }
      }
     }
     JOINT LeftCollar
     {
      OFFSET 2.920100 9.518800 0.000000
      CHANNELS 3 Yrotation Xrotation Zrotation
      JOINT LeftShoulder
      {
       OFFSET 13.664500 0.000000 0.000000
       CHANNELS 3 Yrotation Xrotation Zrotation
       JOINT LeftElbow
       {
        OFFSET 0.000000 -29.999200 0.000000
        CHANNELS 3 Yrotation Xrotation Zrotation
        JOINT LeftWrist
        {
         OFFSET 0.000000 -24.253600 0.000000
         CHANNELS 3 Yrotation Xrotation Zrotation
         End Site
         {
          OFFSET 0.000000 -17.918900 0.000000
         }
        }
       }
      }
     }
    }
   }
  }
 }
 JOINT RightHip
 {
  OFFSET -7.797300 0.005300 0.000500
  CHANNELS 3 Yrotation Xrotation Zrotation
  JOINT RightKnee
  {
   OFFSET 0.000000 -40.663400 -0.000500
   CHANNELS 3 Yrotation Xrotation Zrotation
   JOINT RightAnkle
   {
    OFFSET 0.000000 -39.523700 -0.000900
    CHANNELS 3 Yrotation Xrotation Zrotation
    JOINT RightToe
    {
     OFFSET 0.000000 -6.418000 14.485300
     CHANNELS 3 Yrotation Xrotation Zrotation
     End Site
     {
      OFFSET 0.000000 -1.465200 6.326400
     }
    }
   }
  }
 }
 JOINT LeftHip
 {
  OFFSET 7.797300 0.005300 0.000500
  CHANNELS 3 Yrotation Xrotation Zrotation
  JOINT LeftKnee
  {
   OFFSET 0.000000 -40.663400 -0.000500
   CHANNELS 3 Yrotation Xrotation Zrotation
   JOINT LeftAnkle
   {
    OFFSET 0.000000 -39.523700 -0.000900
    CHANNELS 3 Yrotation Xrotation Zrotation
    JOINT LeftToe
    {
     OFFSET 0.000000 -6.418000 14.485300
     CHANNELS 3 Yrotation Xrotation Zrotation
     End Site
     {
      OFFSET 0.000000 -1.465200 6.326400
     }
    }
   }
  }
 }
}
MOTION
Frames: 9
Frame Time: 0.008333
0.000000 86.422400 0.000000 0.000000 -5.767877 0.000000 0.000000 11.653817 0.000000 0.000000 -5.885947 0.000000 0.000000 -0.000000 0.000000 0.000000 -0.000000 0.000000 0.000000 12.528835 0.000000 0.000000 0.711642 0.000000 0.000000 -0.000000 0.000000 0.000000 0.000000 -90.000000 0.000000 -2.309062 0.000000 0.000000 2.309062 0.000000 0.000000 -0.000000 0.000000 0.000000 -0.000000 90.000000 0.000000 -2.309062 0.000000 0.000000 2.309062 0.000000 0.000000 8.520406 0.000000 0.000000 1.905762 0.000000 -0.000000 -4.658285 0.000000 0.000000 -0.000000 0.000000 0.000000 8.520406 0.000000 0.000000 1.905762 0.000000 -0.000000 -4.658285 0.000000 0.000000 -0.000000 0.000000
-13.413237 126.913789 32.637160 -160.222333 -50.414611 -3.198875 -3.698748 26.871537 -0.968026 -0.588384 4.636453 -0.037392 -0.926775 7.362482 -0.092160 -2.936834 21.913514 -0.619617 -0.886156 16.192248 -1.957676 -0.597927 -8.788196 -1.882170 0.735396 2.946160 0.643287 0.861491 -6.299218 -9.874041 -86.677458 -66.405580 136.103457 2.410852 12.945302 1.372977 -9.536150 -1.051739 0.069794 -5.319761 -8.415810 10.886621 60.107475 -62.437050 -101.097282 -8.199619 17.442305 -4.604073 -6.440179 -22.635170 -11.159103 -12.056686 78.809043 -13.421854 10.240432 -16.350965 4.020331 -0.000912 -0.008019 -0.000404 4.328024 5.783571 -1.704846 128.948309 64.953595 147.318193 10.733985 10.876768 3.514892 -0.001953 0.015823 -0.000866
-13.411699 126.912861 32.637315 -160.234851 -50.405376 -3.197338 -3.695286 26.856646 -0.957424 -0.592244 4.629512 -0.033518 -0.925026 7.356065 -0.091436 -2.944714 21.903828 -0.613534 -0.939042 16.185446 -2.010584 -0.667016 -8.786837 -1.944803 0.742267 2.956998 0.621224 0.859188 -6.275905 -9.863608 -86.673664 -66.402921 136.114500 2.429293 12.998425 1.189165 -9.532238 -1.026251 0.057702 -5.321047 -8.432119 10.928119 59.816551 -62.254440 -100.939633 -8.028138 17.411829 -4.443292 -6.435922 -22.647596 -11.147189 -12.059029 78.810929 -13.422606 10.237567 -16.318987 4.021923 -0.002244 -0.003364 -0.000994 4.328952 5.777384 -1.702596 128.949665 64.951608 147.319641 10.722394 10.862023 3.535152 -0.000227 0.012571 -0.000100
-13.411730 126.911883 32.637906 -160.234935 -50.395629 -3.194740 -3.699622 26.844882 -0.959333 -0.599217 4.621581 -0.027359 -0.942108 7.324875 -0.075944 -2.946424 21.913532 -0.626563 -1.004570 16.182615 -2.076731 -0.734956 -8.780023 -2.023420 0.750428 2.951893 0.593280 0.861313 -6.242501 -9.844194 -86.674189 -66.407723 136.115761 2.466915 13.053268 1.018908 -9.555551 -1.011833 0.080923 -5.295824 -8.441265 10.933828 59.521641 -62.062410 -100.778422 -7.846857 17.365846 -4.260160 -6.440234 -22.657830 -11.145475 -12.052797 78.809214 -13.421811 10.245074 -16.306199 4.024591 -0.001398 -0.001723 -0.000619 4.324612 5.771335 -1.709589 128.944796 64.949706 147.313354 10.681057 10.808640 3.649730 0.003610 -0.003357 0.001599
-13.411554 126.911527 32.637892 -160.237143 -50.390538 -3.191745 -3.713336 26.830887 -0.955824 -0.600413 4.614752 -0.028919 -0.940762 7.323000 -0.077575 -2.958324 21.899157 -0.622274 -1.077574 16.186081 -2.155692 -0.803472 -8.776440 -2.113482 0.755168 2.912428 0.571217 0.871369 -6.179895 -9.814369 -86.669539 -66.431428 136.104032 2.535528 13.107376 0.861064 -9.549257 -0.990337 0.064834 -5.315147 -8.453591 10.981281 59.222090 -61.858926 -100.614478 -7.664894 17.291859 -4.057916 -6.444087 -22.661201 -11.144098 -12.041591 78.805360 -13.417739 10.263690 -16.299841 4.026843 0.000026 -0.000288 0.000012 4.322472 5.767761 -1.714370 128.944178 64.948988 147.313201 10.663239 10.785629 3.697446 0.005561 -0.009754 0.002463
-13.411377 126.911296 32.637773 -160.242158 -50.386518 -3.185469 -3.738943 26.804495 -0.955607 -0.594086 4.617211 -0.034874 -0.928353 7.335854 -0.085715 -2.977925 21.874314 -0.614024 -1.227447 16.165127 -2.307161 -0.806505 -8.754832 -2.170291 0.772291 2.932823 0.552109 0.872394 -6.173840 -9.803400 -86.716159 -66.447902 136.122725 2.632617 13.163802 0.733946 -9.538732 -0.970814 0.051117 -5.322086 -8.455705 10.999669 58.896234 -61.677135 -100.443461 -7.490475 17.186667 -3.841421 -6.442567 -22.666257 -11.143194 -12.044497 78.804785 -13.426124 10.271696 -16.293745 4.030785 -0.000314 -0.000971 -0.000139 4.315075 5.770157 -1.724768 128.937499 64.949211 147.300641 10.654630 10.769615 3.726207 0.004344 -0.011065 0.001924
-13.411006 126.911404 32.637326 -160.249948 -50.385266 -3.177469 -3.750478 26.793224 -0.960651 -0.587910 4.619522 -0.036414 -0.937024 7.321913 -0.079637 -2.993169 21.864017 -0.621940 -1.333401 16.155025 -2.433468 -0.847471 -8.747723 -2.251443 0.790115 2.921297 0.534041 0.891307 -6.162076 -9.753565 -86.754213 -66.510793 136.093388 2.761694 13.224842 0.637820 -9.534662 -0.961789 0.049080 -5.361256 -8.459829 11.058683 58.619933 -61.450329 -100.287411 -7.324880 17.051728 -3.611987 -6.438337 -22.668270 -11.144793 -12.044701 78.806914 -13.427195 10.272431 -16.291141 4.031674 -0.003112 -0.001367 -0.001379 4.307309 5.775690 -1.731146 128.935558 64.953978 147.291544 10.660918 10.776431 3.709342 0.003475 -0.005969 0.001539
-13.410465 126.911228 32.637114 -160.258173 -50.381968 -3.168393 -3.754737 26.784632 -0.965604 -0.588597 4.617180 -0.036471 -0.948023 7.307580 -0.077877 -3.004964 21.855168 -0.629762 -1.362627 16.167260 -2.492224 -0.952671 -8.765046 -2.384169 0.808983 2.914419 0.519767 0.899182 -6.144195 -9.728951 -86.845367 -66.555489 136.123797 2.927526 13.288359 0.552425 -9.552867 -0.965077 0.054365 -5.392847 -8.450069 11.117027 58.367743 -61.235851 -100.145951 -7.162010 16.892591 -3.369182 -6.434535 -22.672529 -11.148009 -12.079699 78.807631 -13.458533 10.283039 -16.291859 4.026457 -0.003911 -0.001664 -0.001733 4.305620 5.774365 -1.734095 128.939621 64.957778 147.291594 10.662454 10.785116 3.695873 0.002549 -0.003956 0.001129
-13.409867 126.911285 32.636744 -160.269198 -50.380764 -3.156787 -3.757781 26.777859 -0.971413 -0.597715 4.607437 -0.035965 -0.950516 7.300455 -0.079581 -3.015190 21.851263 -0.640106 -1.467877 16.151447 -2.624153 -0.990147 -8.761190 -2.463164 0.821410 2.911829 0.504646 0.904318 -6.141452 -9.703626 -86.948622 -66.601363 136.163265 3.120400 13.356757 0.482867 -9.534289 -0.945891 0.046716 -5.423907 -8.452180 11.147543 58.084531 -61.084953 -100.016933 -6.993974 16.715026 -3.110725 -6.427354 -22.674756 -11.149715 -12.095874 78.810576 -13.471455 10.282191 -16.294651 4.022135 -0.005012 -0.001744 -0.002220 4.305842 5.774220 -1.737406 128.944155 64.961200 147.290824 10.680920 10.811012 3.641564 -0.000298 0.002849 -0.000132
